<svg xmlns="http://www.w3.org/2000/svg" xmlns:xlink="http://www.w3.org/1999/xlink" width="1080" zoomAndPan="magnify" viewBox="0 0 810 809.999993" height="1080" preserveAspectRatio="xMidYMid meet" version="1.0"><path fill="#100f0d" d="M 414.128906 212.699219 L 454.683594 198.277344 C 466.34375 194.132812 479.332031 198.351562 486.328125 208.554688 L 510.664062 244.0625 C 514.214844 249.238281 519.4375 253.03125 525.449219 254.808594 L 566.738281 266.980469 C 578.609375 270.476562 586.636719 281.523438 586.296875 293.894531 L 585.113281 336.921875 C 584.941406 343.195312 586.9375 349.335938 590.761719 354.308594 L 617.007812 388.421875 C 624.554688 398.230469 624.554688 411.890625 617.007812 421.695312 L 590.761719 455.808594 C 586.9375 460.785156 584.941406 466.921875 585.113281 473.195312 L 586.296875 516.222656 C 586.636719 528.59375 578.609375 539.640625 566.738281 543.140625 L 525.449219 555.308594 C 519.4375 557.085938 514.214844 560.878906 510.664062 566.054688 L 486.328125 601.5625 C 479.332031 611.765625 466.34375 615.988281 454.683594 611.839844 L 414.128906 597.421875 C 408.21875 595.320312 401.765625 595.320312 395.851562 597.421875 L 355.292969 611.839844 C 343.636719 615.988281 330.644531 611.765625 323.652344 601.5625 L 299.316406 566.054688 C 295.769531 560.878906 290.546875 557.085938 284.527344 555.308594 L 243.242188 543.140625 C 231.371094 539.640625 223.347656 528.59375 223.6875 516.222656 L 224.871094 473.195312 C 225.039062 466.921875 223.046875 460.785156 219.21875 455.808594 L 192.972656 421.695312 C 185.425781 411.890625 185.425781 398.230469 192.972656 388.421875 L 219.21875 354.308594 C 223.046875 349.335938 225.039062 343.195312 224.871094 336.921875 L 223.6875 293.894531 C 223.347656 281.523438 231.371094 270.476562 243.242188 266.980469 L 284.527344 254.808594 C 290.546875 253.03125 295.769531 249.238281 299.316406 244.0625 L 323.652344 208.554688 C 330.644531 198.351562 343.636719 194.132812 355.292969 198.277344 L 395.851562 212.699219 C 401.765625 214.796875 408.21875 214.796875 414.128906 212.699219 " fill-opacity="1" fill-rule="nonzero"/><path fill="#ffffff" d="M 526.570312 340.933594 L 492.253906 306.613281 L 364 434.871094 L 317.730469 388.601562 L 283.410156 422.914062 L 316.269531 455.765625 L 316.269531 455.773438 L 364 503.503906 L 411.734375 455.773438 L 526.570312 340.933594 " fill-opacity="1" fill-rule="nonzero"/></svg>