<svg xmlns="http://www.w3.org/2000/svg" xmlns:xlink="http://www.w3.org/1999/xlink" width="1080" zoomAndPan="magnify" viewBox="0 0 810 809.999993" height="1080" preserveAspectRatio="xMidYMid meet" version="1.0"><defs><clipPath id="49a45a323e"><path d="M 158.269531 158.269531 L 651.769531 158.269531 L 651.769531 651.769531 L 158.269531 651.769531 Z M 158.269531 158.269531 " clip-rule="nonzero"/></clipPath></defs><g clip-path="url(#49a45a323e)"><path fill="#000000" d="M 405.019531 158.269531 C 268.742188 158.269531 158.269531 268.742188 158.269531 405.019531 C 158.269531 541.292969 268.742188 651.769531 405.019531 651.769531 C 541.292969 651.769531 651.769531 541.292969 651.769531 405.019531 C 651.769531 268.742188 541.292969 158.269531 405.019531 158.269531 Z M 254.628906 286.992188 L 555.09375 286.992188 C 555.433594 286.992188 555.746094 287.085938 556.027344 287.277344 C 556.308594 287.464844 556.515625 287.71875 556.640625 288.035156 C 556.769531 288.351562 556.796875 288.675781 556.722656 289.007812 C 556.652344 289.339844 556.492188 289.625 556.246094 289.859375 L 455.238281 385.71875 L 455.074219 385.882812 L 424.910156 414.503906 C 424.191406 415.191406 423.445312 415.839844 422.664062 416.453125 C 421.882812 417.066406 421.074219 417.640625 420.238281 418.175781 C 419.402344 418.714844 418.542969 419.207031 417.65625 419.660156 C 416.773438 420.113281 415.871094 420.523438 414.949219 420.890625 C 414.027344 421.257812 413.085938 421.578125 412.132812 421.855469 C 411.179688 422.132812 410.214844 422.363281 409.238281 422.546875 C 408.265625 422.730469 407.28125 422.867188 406.292969 422.957031 C 405.304688 423.046875 404.3125 423.089844 403.320312 423.085938 C 402.328125 423.078125 401.335938 423.027344 400.347656 422.925781 C 399.359375 422.824219 398.378906 422.679688 397.40625 422.484375 C 396.433594 422.289062 395.46875 422.050781 394.519531 421.761719 C 393.566406 421.476562 392.632812 421.144531 391.714844 420.769531 C 390.796875 420.390625 389.898438 419.972656 389.019531 419.507812 C 388.140625 419.046875 387.285156 418.542969 386.453125 417.996094 C 385.625 417.453125 384.824219 416.871094 384.046875 416.25 C 383.273438 415.625 382.53125 414.96875 381.820312 414.277344 L 353.894531 387.203125 C 353.847656 387.15625 353.800781 387.113281 353.753906 387.066406 L 253.464844 289.84375 C 253.21875 289.609375 253.066406 289.324219 252.996094 288.996094 C 252.925781 288.664062 252.953125 288.339844 253.082031 288.027344 C 253.210938 287.714844 253.414062 287.460938 253.695312 287.273438 C 253.976562 287.085938 254.289062 286.992188 254.628906 286.992188 Z M 240.464844 506.464844 L 240.464844 300.257812 C 240.464844 299.921875 240.554688 299.617188 240.738281 299.339844 C 240.925781 299.0625 241.167969 298.859375 241.476562 298.726562 C 241.785156 298.597656 242.101562 298.5625 242.429688 298.625 C 242.757812 298.683594 243.039062 298.832031 243.28125 299.0625 L 338.582031 391.46875 C 338.734375 391.613281 338.851562 391.78125 338.9375 391.972656 C 339.023438 392.164062 339.074219 392.363281 339.085938 392.574219 C 339.09375 392.78125 339.066406 392.988281 339 393.1875 C 338.933594 393.382812 338.835938 393.566406 338.699219 393.726562 L 243.398438 507.535156 C 243.171875 507.804688 242.890625 507.984375 242.554688 508.074219 C 242.214844 508.164062 241.882812 508.152344 241.554688 508.03125 C 241.226562 507.910156 240.960938 507.707031 240.761719 507.421875 C 240.5625 507.132812 240.460938 506.816406 240.464844 506.464844 Z M 558.1875 523.042969 L 251.847656 523.042969 C 251.527344 523.042969 251.230469 522.957031 250.957031 522.785156 C 250.6875 522.609375 250.480469 522.378906 250.34375 522.085938 C 250.210938 521.792969 250.160156 521.488281 250.203125 521.167969 C 250.246094 520.847656 250.371094 520.566406 250.578125 520.316406 L 348.414062 403.484375 C 348.5625 403.308594 348.742188 403.167969 348.945312 403.0625 C 349.152344 402.960938 349.371094 402.902344 349.601562 402.890625 C 349.832031 402.878906 350.054688 402.914062 350.273438 402.996094 C 350.488281 403.078125 350.679688 403.199219 350.84375 403.359375 L 372.253906 424.117188 C 374.308594 426.117188 376.535156 427.902344 378.933594 429.472656 C 381.332031 431.042969 383.859375 432.371094 386.511719 433.453125 C 389.164062 434.535156 391.898438 435.355469 394.710938 435.914062 C 397.519531 436.472656 400.359375 436.753906 403.226562 436.765625 L 403.472656 436.765625 C 406.316406 436.769531 409.140625 436.503906 411.933594 435.96875 C 414.730469 435.433594 417.449219 434.640625 420.09375 433.585938 C 422.734375 432.53125 425.253906 431.234375 427.652344 429.695312 C 430.046875 428.160156 432.273438 426.410156 434.335938 424.449219 L 458.03125 401.953125 C 458.199219 401.792969 458.386719 401.675781 458.605469 401.597656 C 458.820312 401.519531 459.039062 401.484375 459.269531 401.5 C 459.5 401.511719 459.714844 401.570312 459.917969 401.671875 C 460.125 401.773438 460.300781 401.914062 460.449219 402.089844 L 559.453125 520.316406 C 559.660156 520.5625 559.785156 520.847656 559.828125 521.167969 C 559.867188 521.484375 559.824219 521.789062 559.6875 522.082031 C 559.550781 522.375 559.347656 522.609375 559.078125 522.78125 C 558.804688 522.953125 558.511719 523.042969 558.1875 523.042969 Z M 569.574219 506.464844 C 569.574219 506.8125 569.472656 507.132812 569.273438 507.417969 C 569.070312 507.703125 568.808594 507.90625 568.480469 508.027344 C 568.152344 508.144531 567.820312 508.160156 567.480469 508.066406 C 567.144531 507.976562 566.863281 507.796875 566.640625 507.53125 L 470.289062 392.472656 C 470.152344 392.308594 470.050781 392.128906 469.984375 391.925781 C 469.917969 391.726562 469.890625 391.519531 469.90625 391.308594 C 469.917969 391.097656 469.96875 390.898438 470.054688 390.707031 C 470.144531 390.515625 470.265625 390.347656 470.417969 390.199219 L 566.777344 298.757812 C 567.015625 298.53125 567.300781 298.390625 567.625 298.332031 C 567.953125 298.273438 568.265625 298.3125 568.570312 298.441406 C 568.875 298.574219 569.117188 298.777344 569.296875 299.050781 C 569.480469 299.328125 569.574219 299.632812 569.574219 299.960938 Z M 569.574219 506.464844 " fill-opacity="1" fill-rule="nonzero"/></g></svg>