<svg xmlns="http://www.w3.org/2000/svg" xmlns:xlink="http://www.w3.org/1999/xlink" width="1080" zoomAndPan="magnify" viewBox="0 0 810 809.999993" height="1080" preserveAspectRatio="xMidYMid meet" version="1.0"><defs><clipPath id="9eeecabc26"><path d="M 200.632812 172.261719 L 609.382812 172.261719 L 609.382812 581.011719 L 200.632812 581.011719 Z M 200.632812 172.261719 " clip-rule="nonzero"/></clipPath></defs><g clip-path="url(#9eeecabc26)"><path fill="#000000" d="M 405.039062 172.292969 C 399.277344 172.292969 393.519531 175.085938 390.148438 180.703125 L 383.578125 191.667969 C 380.746094 196.382812 376.070312 199.554688 370.773438 201 C 370.710938 201.015625 370.683594 201.046875 370.621094 201.0625 C 365.257812 202.539062 359.570312 202.109375 354.714844 199.40625 L 343.539062 193.203125 C 332.078125 186.835938 317.964844 194.984375 317.746094 208.09375 L 317.5 221.019531 C 317.40625 226.492188 314.980469 231.585938 311.113281 235.453125 C 311.066406 235.484375 311.019531 235.527344 310.988281 235.574219 C 307.121094 239.457031 302.027344 241.867188 296.558594 241.960938 L 283.601562 242.175781 C 270.488281 242.398438 262.339844 256.523438 268.707031 268 L 274.941406 279.207031 C 277.613281 284.035156 278.0625 289.675781 276.597656 294.992188 C 276.550781 295.085938 276.539062 295.171875 276.507812 295.265625 C 275.078125 300.535156 271.902344 305.164062 267.234375 307.980469 L 256.242188 314.582031 C 245 321.324219 245 337.621094 256.242188 344.363281 L 267.234375 350.964844 C 271.917969 353.78125 275.078125 358.410156 276.507812 363.679688 C 276.539062 363.773438 276.539062 363.875 276.570312 363.984375 C 278.03125 369.300781 277.613281 374.957031 274.941406 379.769531 L 268.707031 390.976562 C 262.339844 402.4375 270.488281 416.546875 283.601562 416.769531 L 296.527344 416.984375 C 302.015625 417.078125 307.089844 419.53125 310.957031 423.398438 L 311.082031 423.523438 C 314.964844 427.390625 317.40625 432.484375 317.5 437.953125 L 317.714844 450.882812 C 317.933594 463.992188 332.046875 472.140625 343.507812 465.773438 L 354.714844 459.539062 C 359.539062 456.867188 365.183594 456.449219 370.496094 457.914062 C 370.589844 457.945312 370.710938 457.941406 370.804688 457.972656 C 376.070312 459.40625 380.703125 462.5625 383.515625 467.246094 L 390.117188 478.238281 C 396.863281 489.480469 413.15625 489.480469 419.902344 478.238281 L 426.503906 467.246094 C 429.316406 462.5625 433.949219 459.40625 439.214844 457.972656 C 439.308594 457.941406 439.398438 457.945312 439.492188 457.914062 C 444.804688 456.449219 450.464844 456.867188 455.273438 459.539062 L 466.480469 465.773438 C 477.941406 472.140625 492.085938 463.992188 492.304688 450.882812 L 492.519531 437.953125 C 492.613281 432.46875 495.039062 427.390625 498.90625 423.523438 L 499.027344 423.398438 C 502.898438 419.515625 507.988281 417.078125 513.460938 416.984375 L 526.417969 416.769531 C 539.53125 416.546875 547.675781 402.4375 541.308594 390.976562 L 535.078125 379.769531 C 532.40625 374.941406 531.957031 369.300781 533.417969 363.984375 C 533.449219 363.890625 533.480469 363.789062 533.511719 363.679688 C 534.941406 358.410156 538.097656 353.78125 542.785156 350.964844 L 553.777344 344.363281 C 565.050781 337.605469 565.046875 321.324219 553.808594 314.582031 L 542.816406 307.980469 C 538.128906 305.164062 534.972656 300.535156 533.542969 295.265625 C 533.511719 295.171875 533.480469 295.101562 533.449219 294.992188 C 531.988281 289.675781 532.433594 284.019531 535.109375 279.207031 L 541.339844 268 C 547.707031 256.539062 539.5625 242.398438 526.449219 242.175781 L 513.492188 241.960938 C 508.003906 241.867188 502.925781 239.441406 499.058594 235.574219 L 498.9375 235.453125 C 495.054688 231.585938 492.644531 226.492188 492.550781 221.019531 L 492.335938 208.0625 C 492.117188 194.953125 477.972656 186.804688 466.511719 193.171875 L 455.304688 199.40625 C 450.476562 202.078125 444.835938 202.523438 439.523438 201.0625 C 439.429688 201.03125 439.355469 201.003906 439.246094 200.96875 C 433.980469 199.539062 429.347656 196.382812 426.535156 191.699219 L 419.933594 180.703125 C 416.558594 175.085938 410.800781 172.292969 405.039062 172.292969 Z M 549.203125 442.222656 C 542.472656 445.855469 534.957031 448.070312 526.941406 448.210938 L 523.777344 448.242188 L 523.746094 451.402344 C 523.308594 477.878906 501.371094 499.394531 474.894531 499.394531 C 466.671875 499.394531 458.484375 497.296875 451.222656 493.253906 L 448.488281 491.71875 L 446.859375 494.421875 C 446.53125 494.972656 446.039062 495.390625 445.695312 495.925781 L 530.777344 581.011719 L 530.777344 502.40625 L 609.382812 502.40625 Z M 260.785156 442.253906 L 200.632812 502.40625 L 279.238281 502.40625 L 279.238281 581.011719 L 364.324219 495.925781 C 363.980469 495.390625 363.488281 494.972656 363.15625 494.421875 L 361.53125 491.71875 L 358.765625 493.253906 C 351.503906 497.28125 343.332031 499.425781 335.09375 499.425781 C 308.617188 499.425781 286.710938 477.878906 286.273438 451.402344 L 286.210938 448.273438 L 283.078125 448.210938 C 275.078125 448.070312 267.515625 445.886719 260.785156 442.253906 Z M 260.785156 442.253906 " fill-opacity="1" fill-rule="nonzero"/></g></svg>