<svg xmlns="http://www.w3.org/2000/svg" xmlns:xlink="http://www.w3.org/1999/xlink" width="1080" zoomAndPan="magnify" viewBox="0 0 810 809.999993" height="1080" preserveAspectRatio="xMidYMid meet" version="1.0"><defs><clipPath id="8ec427f954"><path d="M 211.90625 211.90625 L 598.15625 211.90625 L 598.15625 596 L 211.90625 596 Z M 211.90625 211.90625 " clip-rule="nonzero"/></clipPath><clipPath id="992648ce4f"><path d="M 325 287 L 492 287 L 492 598.15625 L 325 598.15625 Z M 325 287 " clip-rule="nonzero"/></clipPath></defs><g clip-path="url(#8ec427f954)"><path fill="#100f0d" d="M 598.15625 405.03125 C 598.15625 298.371094 511.691406 211.90625 405.03125 211.90625 C 298.371094 211.90625 211.90625 298.371094 211.90625 405.03125 C 211.90625 501.425781 282.527344 581.320312 374.855469 595.808594 L 374.855469 460.855469 L 325.820312 460.855469 L 325.820312 405.03125 L 374.855469 405.03125 L 374.855469 362.484375 C 374.855469 314.082031 403.6875 287.34375 447.800781 287.34375 C 468.929688 287.34375 491.03125 291.117188 491.03125 291.117188 L 491.03125 338.644531 L 466.679688 338.644531 C 442.6875 338.644531 435.207031 353.53125 435.207031 368.804688 L 435.207031 405.03125 L 488.769531 405.03125 L 480.207031 460.855469 L 435.207031 460.855469 L 435.207031 595.808594 C 527.53125 581.320312 598.15625 501.425781 598.15625 405.03125 " fill-opacity="1" fill-rule="nonzero"/></g><g clip-path="url(#992648ce4f)"><path fill="#ffffff" d="M 480.207031 460.855469 L 488.769531 405.03125 L 435.207031 405.03125 L 435.207031 368.804688 C 435.207031 353.53125 442.6875 338.644531 466.679688 338.644531 L 491.03125 338.644531 L 491.03125 291.117188 C 491.03125 291.117188 468.929688 287.34375 447.800781 287.34375 C 403.6875 287.34375 374.855469 314.082031 374.855469 362.484375 L 374.855469 405.03125 L 325.820312 405.03125 L 325.820312 460.855469 L 374.855469 460.855469 L 374.855469 595.808594 C 384.6875 597.351562 394.765625 598.15625 405.03125 598.15625 C 415.296875 598.15625 425.375 597.351562 435.207031 595.808594 L 435.207031 460.855469 L 480.207031 460.855469 " fill-opacity="1" fill-rule="nonzero"/></g></svg>