<svg xmlns="http://www.w3.org/2000/svg" xmlns:xlink="http://www.w3.org/1999/xlink" width="1080" zoomAndPan="magnify" viewBox="0 0 810 809.999993" height="1080" preserveAspectRatio="xMidYMid meet" version="1.0"><defs><clipPath id="cf6ccbffab"><path d="M 175.933594 162.351562 L 633 162.351562 L 633 610.851562 L 175.933594 610.851562 Z M 175.933594 162.351562 " clip-rule="nonzero"/></clipPath></defs><g clip-path="url(#cf6ccbffab)"><path fill="#24292f" d="M 404.378906 162.351562 C 278.054688 162.351562 175.9375 265.132812 175.9375 392.289062 C 175.9375 493.929688 241.367188 579.964844 332.136719 610.417969 C 343.488281 612.707031 347.644531 605.46875 347.644531 599.382812 C 347.644531 594.050781 347.269531 575.78125 347.269531 556.742188 C 283.722656 570.449219 270.488281 529.332031 270.488281 529.332031 C 260.277344 502.683594 245.144531 495.835938 245.144531 495.835938 C 224.347656 481.75 246.660156 481.75 246.660156 481.75 C 269.730469 483.273438 281.839844 505.351562 281.839844 505.351562 C 302.257812 540.371094 335.164062 530.476562 348.402344 524.386719 C 350.289062 509.539062 356.347656 499.261719 362.773438 493.550781 C 312.09375 488.21875 258.765625 468.425781 258.765625 380.105469 C 258.765625 354.976562 267.839844 334.421875 282.210938 318.433594 C 279.945312 312.726562 272 289.117188 284.484375 257.523438 C 284.484375 257.523438 303.773438 251.429688 347.265625 281.125 C 365.964844 276.070312 385.003906 273.53125 404.378906 273.511719 C 423.667969 273.511719 443.328125 276.179688 461.484375 281.125 C 504.980469 251.429688 524.269531 257.523438 524.269531 257.523438 C 536.753906 289.117188 528.804688 312.726562 526.539062 318.433594 C 541.289062 334.421875 549.988281 354.976562 549.988281 380.105469 C 549.988281 468.425781 496.664062 487.835938 445.601562 493.550781 C 453.925781 500.78125 461.105469 514.484375 461.105469 536.1875 C 461.105469 567.019531 460.734375 591.769531 460.734375 599.378906 C 460.734375 605.46875 464.894531 612.707031 476.238281 610.421875 C 567.007812 579.960938 632.441406 493.929688 632.441406 392.289062 C 632.8125 265.132812 530.320312 162.351562 404.378906 162.351562 Z M 404.378906 162.351562 " fill-opacity="1" fill-rule="evenodd"/></g></svg>