<svg xmlns="http://www.w3.org/2000/svg" xmlns:xlink="http://www.w3.org/1999/xlink" width="1080" zoomAndPan="magnify" viewBox="0 0 810 809.999993" height="1080" preserveAspectRatio="xMidYMid meet" version="1.0"><defs><clipPath id="1ddccb2e68"><path d="M 197 228.269531 L 549 228.269531 L 549 579 L 197 579 Z M 197 228.269531 " clip-rule="nonzero"/></clipPath><clipPath id="f911ee96c5"><path d="M 564 533 L 613 533 L 613 581.519531 L 564 581.519531 Z M 564 533 " clip-rule="nonzero"/></clipPath></defs><path fill="#000000" d="M 591.746094 558.714844 C 592.191406 558.71875 592.632812 558.679688 593.066406 558.59375 C 593.503906 558.507812 593.929688 558.375 594.335938 558.203125 C 594.746094 558.03125 595.132812 557.816406 595.5 557.566406 C 595.867188 557.3125 596.203125 557.027344 596.507812 556.703125 C 596.816406 556.382812 597.085938 556.03125 597.320312 555.65625 C 597.554688 555.277344 597.75 554.878906 597.902344 554.464844 C 598.054688 554.046875 598.164062 553.617188 598.230469 553.179688 C 598.296875 552.738281 598.316406 552.296875 598.292969 551.851562 C 598.292969 546.984375 595.355469 544.660156 589.332031 544.660156 L 579.597656 544.660156 L 579.597656 570.140625 L 583.257812 570.140625 L 583.257812 559.035156 L 587.757812 559.035156 L 587.859375 559.167969 L 594.839844 570.140625 L 598.757812 570.140625 L 591.246094 558.785156 Z M 587.515625 556.164062 L 583.269531 556.164062 L 583.269531 547.546875 L 588.648438 547.546875 C 591.429688 547.546875 594.597656 548.003906 594.597656 551.640625 C 594.597656 555.828125 591.390625 556.164062 587.492188 556.164062 " fill-opacity="1" fill-rule="nonzero"/><g clip-path="url(#1ddccb2e68)"><path fill="#000000" d="M 496.242188 526.785156 L 444.324219 526.785156 L 444.324219 445.488281 C 444.324219 426.101562 443.980469 401.144531 417.324219 401.144531 C 390.285156 401.144531 386.148438 422.269531 386.148438 444.074219 L 386.148438 526.777344 L 334.230469 526.777344 L 334.230469 359.601562 L 384.070312 359.601562 L 384.070312 382.445312 L 384.769531 382.445312 C 386.007812 380.324219 387.386719 378.296875 388.902344 376.359375 C 390.417969 374.421875 392.058594 372.597656 393.820312 370.882812 C 395.582031 369.167969 397.449219 367.578125 399.425781 366.117188 C 401.402344 364.65625 403.46875 363.332031 405.621094 362.148438 C 407.777344 360.964844 410.003906 359.933594 412.296875 359.050781 C 414.59375 358.167969 416.933594 357.441406 419.328125 356.875 C 421.71875 356.308594 424.140625 355.90625 426.585938 355.664062 C 429.035156 355.425781 431.484375 355.351562 433.941406 355.441406 C 486.5625 355.441406 496.265625 390.050781 496.265625 435.074219 Z M 275.652344 336.75 C 274.664062 336.75 273.679688 336.699219 272.699219 336.605469 C 271.714844 336.507812 270.742188 336.363281 269.773438 336.171875 C 268.804688 335.976562 267.847656 335.738281 266.90625 335.453125 C 265.960938 335.167969 265.03125 334.835938 264.121094 334.457031 C 263.210938 334.078125 262.316406 333.660156 261.449219 333.195312 C 260.578125 332.730469 259.730469 332.222656 258.910156 331.675781 C 258.089844 331.125 257.300781 330.539062 256.535156 329.914062 C 255.773438 329.289062 255.042969 328.625 254.34375 327.929688 C 253.648438 327.230469 252.984375 326.5 252.359375 325.738281 C 251.734375 324.976562 251.144531 324.183594 250.597656 323.363281 C 250.050781 322.542969 249.542969 321.699219 249.078125 320.828125 C 248.613281 319.957031 248.191406 319.066406 247.8125 318.15625 C 247.433594 317.246094 247.101562 316.316406 246.816406 315.375 C 246.527344 314.429688 246.289062 313.472656 246.097656 312.503906 C 245.902344 311.539062 245.757812 310.5625 245.664062 309.582031 C 245.566406 308.597656 245.515625 307.613281 245.515625 306.628906 C 245.515625 305.640625 245.566406 304.65625 245.660156 303.675781 C 245.757812 302.695312 245.902344 301.71875 246.09375 300.75 C 246.289062 299.785156 246.527344 298.828125 246.8125 297.882812 C 247.097656 296.9375 247.429688 296.011719 247.808594 295.101562 C 248.1875 294.1875 248.609375 293.296875 249.074219 292.425781 C 249.539062 291.558594 250.042969 290.710938 250.589844 289.890625 C 251.140625 289.070312 251.726562 288.277344 252.351562 287.515625 C 252.976562 286.753906 253.640625 286.023438 254.335938 285.324219 C 255.035156 284.628906 255.765625 283.964844 256.527344 283.339844 C 257.289062 282.714844 258.082031 282.125 258.902344 281.578125 C 259.722656 281.03125 260.566406 280.523438 261.4375 280.058594 C 262.308594 279.59375 263.199219 279.171875 264.109375 278.792969 C 265.023438 278.414062 265.949219 278.082031 266.894531 277.796875 C 267.839844 277.511719 268.792969 277.269531 269.761719 277.078125 C 270.730469 276.886719 271.703125 276.742188 272.6875 276.644531 C 273.667969 276.546875 274.652344 276.496094 275.640625 276.496094 C 276.625 276.496094 277.609375 276.546875 278.59375 276.640625 C 279.574219 276.738281 280.550781 276.882812 281.515625 277.074219 C 282.484375 277.269531 283.441406 277.507812 284.386719 277.792969 C 285.332031 278.078125 286.257812 278.410156 287.167969 278.789062 C 288.082031 279.167969 288.972656 279.585938 289.84375 280.050781 C 290.714844 280.515625 291.558594 281.023438 292.378906 281.570312 C 293.199219 282.121094 293.992188 282.707031 294.753906 283.332031 C 295.515625 283.957031 296.246094 284.621094 296.945312 285.316406 C 297.644531 286.015625 298.304688 286.746094 298.929688 287.507812 C 299.558594 288.269531 300.144531 289.0625 300.691406 289.882812 C 301.242188 290.703125 301.746094 291.546875 302.210938 292.417969 C 302.679688 293.289062 303.101562 294.179688 303.476562 295.089844 C 303.855469 296 304.1875 296.929688 304.472656 297.871094 C 304.761719 298.816406 305 299.773438 305.191406 300.742188 C 305.386719 301.707031 305.53125 302.683594 305.628906 303.664062 C 305.722656 304.648438 305.773438 305.632812 305.773438 306.617188 C 305.773438 307.605469 305.726562 308.589844 305.628906 309.570312 C 305.53125 310.550781 305.386719 311.527344 305.195312 312.496094 C 305.003906 313.460938 304.765625 314.417969 304.476562 315.363281 C 304.191406 316.308594 303.859375 317.234375 303.480469 318.144531 C 303.105469 319.058594 302.683594 319.949219 302.21875 320.820312 C 301.753906 321.6875 301.246094 322.535156 300.699219 323.355469 C 300.152344 324.175781 299.5625 324.96875 298.9375 325.730469 C 298.3125 326.492188 297.652344 327.222656 296.953125 327.921875 C 296.253906 328.617188 295.523438 329.28125 294.761719 329.90625 C 294 330.53125 293.207031 331.121094 292.386719 331.667969 C 291.566406 332.214844 290.722656 332.722656 289.851562 333.1875 C 288.980469 333.652344 288.089844 334.074219 287.179688 334.453125 C 286.269531 334.832031 285.339844 335.164062 284.394531 335.449219 C 283.453125 335.734375 282.496094 335.976562 281.527344 336.167969 C 280.558594 336.359375 279.585938 336.503906 278.605469 336.601562 C 277.621094 336.699219 276.636719 336.746094 275.652344 336.75 M 301.609375 526.785156 L 249.636719 526.785156 L 249.636719 359.601562 L 301.609375 359.601562 Z M 522.125 228.289062 L 223.550781 228.289062 C 222.714844 228.28125 221.878906 228.3125 221.042969 228.382812 C 220.210938 228.457031 219.382812 228.570312 218.558594 228.722656 C 217.738281 228.878906 216.921875 229.070312 216.121094 229.304688 C 215.316406 229.539062 214.527344 229.8125 213.75 230.125 C 212.972656 230.433594 212.210938 230.785156 211.46875 231.167969 C 210.726562 231.554688 210.003906 231.976562 209.304688 232.433594 C 208.601562 232.890625 207.925781 233.378906 207.273438 233.902344 C 206.621094 234.425781 205.992188 234.980469 205.394531 235.566406 C 204.796875 236.152344 204.226562 236.761719 203.6875 237.402344 C 203.152344 238.042969 202.644531 238.710938 202.171875 239.398438 C 201.699219 240.089844 201.257812 240.800781 200.855469 241.535156 C 200.453125 242.269531 200.085938 243.019531 199.757812 243.789062 C 199.429688 244.558594 199.136719 245.34375 198.882812 246.140625 C 198.632812 246.9375 198.417969 247.746094 198.246094 248.566406 C 198.070312 249.382812 197.941406 250.207031 197.847656 251.039062 C 197.753906 251.871094 197.703125 252.707031 197.695312 253.542969 L 197.695312 553.328125 C 197.703125 554.167969 197.753906 555 197.847656 555.832031 C 197.9375 556.664062 198.070312 557.492188 198.242188 558.308594 C 198.417969 559.128906 198.628906 559.9375 198.882812 560.738281 C 199.132812 561.535156 199.425781 562.320312 199.753906 563.089844 C 200.082031 563.859375 200.449219 564.609375 200.851562 565.34375 C 201.257812 566.078125 201.695312 566.789062 202.167969 567.480469 C 202.640625 568.171875 203.148438 568.839844 203.683594 569.480469 C 204.222656 570.121094 204.792969 570.734375 205.390625 571.320312 C 205.988281 571.90625 206.613281 572.460938 207.269531 572.984375 C 207.921875 573.507812 208.597656 573.996094 209.300781 574.457031 C 210 574.914062 210.722656 575.335938 211.464844 575.722656 C 212.207031 576.109375 212.96875 576.457031 213.746094 576.769531 C 214.523438 577.082031 215.3125 577.355469 216.117188 577.589844 C 216.921875 577.824219 217.734375 578.015625 218.558594 578.171875 C 219.378906 578.324219 220.207031 578.441406 221.042969 578.511719 C 221.875 578.585938 222.710938 578.617188 223.550781 578.609375 L 522.125 578.609375 C 522.964844 578.621094 523.800781 578.589844 524.636719 578.515625 C 525.472656 578.445312 526.304688 578.332031 527.128906 578.179688 C 527.953125 578.027344 528.769531 577.832031 529.574219 577.601562 C 530.378906 577.367188 531.171875 577.09375 531.953125 576.785156 C 532.730469 576.472656 533.492188 576.125 534.238281 575.738281 C 534.984375 575.351562 535.707031 574.929688 536.410156 574.472656 C 537.113281 574.015625 537.792969 573.527344 538.449219 573.003906 C 539.105469 572.480469 539.734375 571.925781 540.335938 571.339844 C 540.9375 570.753906 541.507812 570.140625 542.046875 569.5 C 542.589844 568.859375 543.097656 568.191406 543.574219 567.5 C 544.046875 566.808594 544.488281 566.097656 544.894531 565.363281 C 545.300781 564.628906 545.667969 563.875 546 563.105469 C 546.332031 562.332031 546.625 561.546875 546.878906 560.75 C 547.132812 559.949219 547.347656 559.140625 547.523438 558.320312 C 547.699219 557.5 547.832031 556.671875 547.925781 555.839844 C 548.019531 555.003906 548.070312 554.167969 548.082031 553.328125 L 548.082031 253.519531 C 548.070312 252.683594 548.019531 251.847656 547.925781 251.015625 C 547.832031 250.179688 547.695312 249.355469 547.519531 248.535156 C 547.34375 247.714844 547.128906 246.90625 546.875 246.105469 C 546.621094 245.304688 546.328125 244.523438 545.996094 243.75 C 545.664062 242.980469 545.296875 242.230469 544.890625 241.496094 C 544.484375 240.761719 544.042969 240.050781 543.570312 239.359375 C 543.09375 238.667969 542.585938 238.003906 542.042969 237.363281 C 541.503906 236.722656 540.933594 236.109375 540.332031 235.523438 C 539.730469 234.9375 539.101562 234.382812 538.445312 233.863281 C 537.792969 233.339844 537.113281 232.847656 536.40625 232.390625 C 535.703125 231.9375 534.980469 231.515625 534.234375 231.128906 C 533.488281 230.746094 532.726562 230.398438 531.949219 230.085938 C 531.171875 229.777344 530.378906 229.503906 529.574219 229.273438 C 528.765625 229.039062 527.953125 228.847656 527.125 228.695312 C 526.300781 228.542969 525.472656 228.429688 524.636719 228.359375 C 523.800781 228.289062 522.964844 228.257812 522.125 228.269531 " fill-opacity="1" fill-rule="nonzero"/></g><g clip-path="url(#f911ee96c5)"><path fill="#000000" d="M 587.957031 533.308594 C 587.4375 533.316406 586.917969 533.335938 586.398438 533.375 C 585.882812 533.414062 585.363281 533.472656 584.851562 533.542969 C 584.335938 533.617188 583.824219 533.707031 583.3125 533.8125 C 582.804688 533.917969 582.300781 534.039062 581.800781 534.179688 C 581.296875 534.316406 580.800781 534.472656 580.3125 534.644531 C 579.820312 534.816406 579.335938 535.003906 578.859375 535.207031 C 578.378906 535.410156 577.90625 535.628906 577.445312 535.859375 C 576.980469 536.09375 576.523438 536.34375 576.074219 536.605469 C 575.625 536.871094 575.1875 537.148438 574.757812 537.441406 C 574.328125 537.734375 573.90625 538.039062 573.496094 538.359375 C 573.085938 538.675781 572.6875 539.011719 572.300781 539.355469 C 571.910156 539.699219 571.535156 540.058594 571.171875 540.429688 C 570.804688 540.800781 570.453125 541.179688 570.113281 541.574219 C 569.773438 541.96875 569.445312 542.371094 569.132812 542.785156 C 568.820312 543.199219 568.519531 543.625 568.234375 544.058594 C 567.945312 544.492188 567.675781 544.9375 567.417969 545.386719 C 567.160156 545.839844 566.921875 546.300781 566.691406 546.765625 C 566.464844 547.234375 566.253906 547.707031 566.058594 548.191406 C 565.863281 548.671875 565.683594 549.160156 565.519531 549.652344 C 565.355469 550.144531 565.207031 550.644531 565.074219 551.144531 C 564.941406 551.648438 564.828125 552.15625 564.726562 552.664062 C 564.628906 553.175781 564.546875 553.6875 564.484375 554.203125 C 564.417969 554.71875 564.371094 555.238281 564.339844 555.757812 C 564.304688 556.273438 564.292969 556.792969 564.292969 557.3125 C 564.296875 557.835938 564.316406 558.351562 564.351562 558.871094 C 564.390625 559.390625 564.441406 559.90625 564.511719 560.421875 C 564.582031 560.9375 564.667969 561.449219 564.773438 561.957031 C 564.875 562.46875 564.996094 562.972656 565.132812 563.476562 C 565.269531 563.976562 565.421875 564.472656 565.59375 564.964844 C 565.761719 565.457031 565.945312 565.941406 566.144531 566.421875 C 566.347656 566.902344 566.5625 567.375 566.792969 567.839844 C 567.027344 568.304688 567.273438 568.761719 567.53125 569.210938 C 567.792969 569.660156 568.070312 570.101562 568.359375 570.53125 C 568.648438 570.964844 568.953125 571.386719 569.269531 571.796875 C 569.589844 572.207031 569.917969 572.609375 570.261719 573 C 570.605469 573.386719 570.960938 573.765625 571.332031 574.132812 C 571.699219 574.5 572.078125 574.855469 572.472656 575.195312 C 572.863281 575.539062 573.265625 575.867188 573.679688 576.183594 C 574.09375 576.496094 574.515625 576.800781 574.949219 577.085938 C 575.378906 577.375 575.824219 577.648438 576.273438 577.910156 C 576.722656 578.167969 577.183594 578.410156 577.648438 578.640625 C 578.117188 578.871094 578.589844 579.085938 579.070312 579.28125 C 579.550781 579.480469 580.035156 579.664062 580.527344 579.828125 C 581.023438 579.996094 581.519531 580.148438 582.019531 580.28125 C 582.523438 580.414062 583.03125 580.53125 583.539062 580.632812 C 584.050781 580.734375 584.5625 580.820312 585.078125 580.886719 C 585.59375 580.953125 586.109375 581.003906 586.628906 581.039062 C 587.148438 581.074219 587.667969 581.089844 588.1875 581.089844 C 588.707031 581.089844 589.226562 581.074219 589.746094 581.039062 C 590.261719 581.003906 590.78125 580.953125 591.296875 580.886719 C 591.8125 580.820312 592.324219 580.734375 592.832031 580.632812 C 593.34375 580.53125 593.851562 580.414062 594.351562 580.28125 C 594.855469 580.148438 595.351562 579.996094 595.84375 579.832031 C 596.335938 579.664062 596.824219 579.480469 597.304688 579.28125 C 597.785156 579.085938 598.257812 578.871094 598.722656 578.640625 C 599.191406 578.414062 599.648438 578.167969 600.097656 577.910156 C 600.550781 577.648438 600.992188 577.375 601.421875 577.085938 C 601.855469 576.800781 602.28125 576.5 602.691406 576.183594 C 603.105469 575.867188 603.507812 575.539062 603.898438 575.195312 C 604.292969 574.855469 604.671875 574.5 605.039062 574.132812 C 605.40625 573.765625 605.765625 573.386719 606.109375 573 C 606.453125 572.609375 606.78125 572.207031 607.101562 571.796875 C 607.417969 571.386719 607.722656 570.964844 608.011719 570.53125 C 608.300781 570.101562 608.578125 569.660156 608.839844 569.210938 C 609.101562 568.761719 609.347656 568.304688 609.578125 567.839844 C 609.808594 567.375 610.027344 566.902344 610.226562 566.421875 C 610.429688 565.941406 610.613281 565.457031 610.78125 564.964844 C 610.949219 564.472656 611.101562 563.976562 611.238281 563.476562 C 611.375 562.972656 611.496094 562.46875 611.597656 561.960938 C 611.703125 561.449219 611.789062 560.9375 611.859375 560.421875 C 611.929688 559.90625 611.984375 559.390625 612.019531 558.871094 C 612.054688 558.355469 612.074219 557.835938 612.078125 557.316406 C 612.082031 556.796875 612.066406 556.277344 612.035156 555.757812 C 612.003906 555.238281 611.957031 554.722656 611.890625 554.207031 C 611.824219 553.691406 611.742188 553.175781 611.644531 552.667969 C 611.546875 552.15625 611.429688 551.648438 611.300781 551.144531 C 611.167969 550.644531 611.019531 550.144531 610.855469 549.652344 C 610.691406 549.160156 610.511719 548.671875 610.316406 548.191406 C 610.117188 547.710938 609.90625 547.234375 609.679688 546.765625 C 609.453125 546.300781 609.210938 545.839844 608.953125 545.386719 C 608.695312 544.9375 608.425781 544.492188 608.140625 544.058594 C 607.855469 543.625 607.554688 543.199219 607.238281 542.785156 C 606.925781 542.371094 606.597656 541.96875 606.257812 541.574219 C 605.917969 541.179688 605.566406 540.800781 605.203125 540.429688 C 604.835938 540.058594 604.460938 539.703125 604.074219 539.355469 C 603.683594 539.011719 603.285156 538.675781 602.875 538.359375 C 602.464844 538.039062 602.046875 537.734375 601.613281 537.441406 C 601.183594 537.148438 600.746094 536.871094 600.296875 536.605469 C 599.847656 536.34375 599.394531 536.09375 598.929688 535.859375 C 598.464844 535.628906 597.992188 535.410156 597.515625 535.207031 C 597.035156 535.003906 596.550781 534.816406 596.0625 534.644531 C 595.570312 534.472656 595.074219 534.316406 594.574219 534.179688 C 594.070312 534.039062 593.566406 533.917969 593.058594 533.8125 C 592.550781 533.707031 592.039062 533.617188 591.523438 533.542969 C 591.007812 533.472656 590.492188 533.414062 589.972656 533.375 C 589.457031 533.335938 588.9375 533.316406 588.417969 533.308594 L 587.957031 533.308594 M 587.957031 578.355469 C 587.269531 578.367188 586.585938 578.34375 585.902344 578.289062 C 585.21875 578.230469 584.539062 578.144531 583.863281 578.019531 C 583.1875 577.898438 582.519531 577.742188 581.859375 577.554688 C 581.199219 577.367188 580.550781 577.144531 579.914062 576.894531 C 579.277344 576.640625 578.652344 576.359375 578.039062 576.046875 C 577.429688 575.730469 576.835938 575.390625 576.261719 575.019531 C 575.683594 574.648438 575.125 574.246094 574.585938 573.820312 C 574.050781 573.394531 573.535156 572.941406 573.042969 572.464844 C 572.550781 571.988281 572.082031 571.488281 571.636719 570.964844 C 571.191406 570.441406 570.773438 569.898438 570.382812 569.335938 C 569.992188 568.769531 569.628906 568.191406 569.296875 567.589844 C 568.964844 566.992188 568.660156 566.375 568.386719 565.746094 C 568.113281 565.117188 567.871094 564.476562 567.664062 563.824219 C 567.453125 563.167969 567.273438 562.507812 567.128906 561.835938 C 566.984375 561.167969 566.875 560.492188 566.796875 559.808594 C 566.714844 559.128906 566.671875 558.445312 566.660156 557.757812 C 566.648438 557.070312 566.671875 556.386719 566.726562 555.703125 C 566.78125 555.019531 566.871094 554.339844 566.996094 553.664062 C 567.117188 552.988281 567.273438 552.320312 567.460938 551.664062 C 567.648438 551.003906 567.871094 550.355469 568.121094 549.714844 C 568.375 549.078125 568.65625 548.453125 568.96875 547.84375 C 569.285156 547.230469 569.625 546.636719 569.996094 546.0625 C 570.367188 545.484375 570.769531 544.929688 571.195312 544.390625 C 571.621094 543.851562 572.074219 543.339844 572.550781 542.84375 C 573.027344 542.351562 573.527344 541.882812 574.050781 541.4375 C 574.574219 540.996094 575.117188 540.578125 575.679688 540.1875 C 576.242188 539.796875 576.828125 539.433594 577.425781 539.101562 C 578.023438 538.765625 578.640625 538.464844 579.269531 538.191406 C 579.898438 537.917969 580.539062 537.675781 581.191406 537.464844 C 581.84375 537.257812 582.507812 537.078125 583.179688 536.933594 C 583.851562 536.789062 584.527344 536.675781 585.207031 536.597656 C 585.890625 536.519531 586.574219 536.476562 587.257812 536.464844 C 587.945312 536.453125 588.628906 536.472656 589.3125 536.53125 C 589.996094 536.585938 590.675781 536.675781 591.351562 536.796875 C 592.027344 536.921875 592.695312 537.074219 593.355469 537.261719 C 594.015625 537.453125 594.664062 537.671875 595.300781 537.925781 C 595.9375 538.175781 596.5625 538.457031 597.175781 538.773438 C 597.785156 539.085938 598.378906 539.425781 598.953125 539.800781 C 599.53125 540.171875 600.089844 540.570312 600.625 540.996094 C 601.164062 541.421875 601.679688 541.875 602.171875 542.351562 C 602.667969 542.828125 603.136719 543.328125 603.578125 543.851562 C 604.023438 544.375 604.4375 544.917969 604.832031 545.480469 C 605.222656 546.046875 605.585938 546.628906 605.917969 547.226562 C 606.25 547.828125 606.554688 548.441406 606.828125 549.070312 C 607.101562 549.699219 607.339844 550.339844 607.550781 550.996094 C 607.761719 551.648438 607.941406 552.308594 608.085938 552.980469 C 608.230469 553.652344 608.339844 554.328125 608.421875 555.007812 C 608.5 555.691406 608.542969 556.375 608.554688 557.058594 C 608.554688 557.179688 608.554688 557.292969 608.554688 557.410156 C 608.570312 558.082031 608.550781 558.753906 608.5 559.421875 C 608.449219 560.089844 608.363281 560.757812 608.246094 561.417969 C 608.128906 562.078125 607.980469 562.730469 607.800781 563.378906 C 607.617188 564.023438 607.40625 564.660156 607.164062 565.285156 C 606.917969 565.910156 606.644531 566.523438 606.34375 567.121094 C 606.039062 567.722656 605.707031 568.304688 605.347656 568.871094 C 604.984375 569.4375 604.597656 569.984375 604.183594 570.511719 C 603.769531 571.039062 603.328125 571.546875 602.863281 572.03125 C 602.398438 572.515625 601.914062 572.976562 601.402344 573.410156 C 600.894531 573.847656 600.363281 574.261719 599.8125 574.644531 C 599.261719 575.03125 598.695312 575.386719 598.109375 575.714844 C 597.527344 576.042969 596.925781 576.34375 596.3125 576.613281 C 595.695312 576.886719 595.070312 577.125 594.433594 577.332031 C 593.792969 577.542969 593.148438 577.71875 592.492188 577.863281 C 591.835938 578.007812 591.175781 578.121094 590.507812 578.203125 C 589.84375 578.28125 589.175781 578.328125 588.503906 578.34375 L 587.960938 578.34375 " fill-opacity="1" fill-rule="nonzero"/></g></svg>